<svg xmlns="http://www.w3.org/2000/svg" viewBox="0 0 64 64" width="64" height="64"><rect width="64" height="64" rx="14" fill="#0A2342"/><path transform="translate(7.560,42.585) scale(0.02900,-0.02900)" d="M74 0V730H332L482 345H502L651 730H914V0H730V623L759 621L571 147H402L213 621L244 623V0ZM1187.5172413793102 -6V136H1348.5172413793102Q1389.5172413793102 136 1409.5172413793102 157.0Q1429.5172413793102 178 1429.5172413793102 218Q1429.5172413793102 258 1409.5172413793102 278.5Q1389.5172413793102 299 1348.5172413793102 299H1187.5172413793102V409H1342.5172413793102Q1419.5172413793102 409 1480.5172413793102 390.5Q1541.5172413793102 372 1576.5172413793102 330.0Q1611.5172413793102 288 1611.5172413793102 218V204Q1611.5172413793102 138 1580.5172413793102 91.0Q1549.5172413793102 44 1489.5172413793102 19.0Q1429.5172413793102 -6 1342.5172413793102 -6ZM1027.5172413793102 -6V736H1207.5172413793102V-6ZM1187.5172413793102 327V437H1321.5172413793102Q1362.5172413793102 437 1381.0172413793102 457.5Q1399.5172413793102 478 1399.5172413793102 515Q1399.5172413793102 553 1381.0172413793102 573.5Q1362.5172413793102 594 1321.5172413793102 594H1187.5172413793102V736H1313.5172413793102Q1441.5172413793102 736 1511.5172413793102 682.5Q1581.5172413793102 629 1581.5172413793102 530V515Q1581.5172413793102 446 1546.0172413793102 404.5Q1510.5172413793102 363 1450.0172413793102 345.0Q1389.5172413793102 327 1313.5172413793102 327Z" fill="#D6742E"/></svg>
